<svg width="600" height="800" viewBox="0 0 600 800" fill="none" xmlns="http://www.w3.org/2000/svg">
<mask id="path-1-outside-1_19_1866" maskUnits="userSpaceOnUse" x="104" y="103" width="394" height="595" fill="black">
<rect fill="white" x="104" y="103" width="394" height="595"/>
<path d="M236 115V165H206V565C206 600 230.6 630 301 630C371.4 630 396 600 396 565V165H366V115H486V165H456V565C456 695 301 685 301 685C301 685 146 695 146 565V165H116V115H236Z"/>
</mask>
<path d="M236 115V165H206V565C206 600 230.6 630 301 630C371.4 630 396 600 396 565V165H366V115H486V165H456V565C456 695 301 685 301 685C301 685 146 695 146 565V165H116V115H236Z" fill="#002A5C"/>
<path d="M236 115H248V103H236V115ZM236 165V177H248V165H236ZM206 165V153H194V165H206ZM396 165H408V153H396V165ZM366 165H354V177H366V165ZM366 115V103H354V115H366ZM486 115H498V103H486V115ZM486 165V177H498V165H486ZM456 165V153H444V165H456ZM301 685L301.773 673.025L301 672.975L300.227 673.025L301 685ZM146 165H158V153H146V165ZM116 165H104V177H116V165ZM116 115V103H104V115H116ZM236 115H224V165H236H248V115H236ZM236 165V153H206V165V177H236V165ZM206 165H194V565H206H218V165H206ZM206 565H194C194 585.517 201.352 605.498 219.636 620.021C237.512 634.221 264.334 642 301 642V630V618C267.266 618 246.588 610.779 234.564 601.229C222.948 592.002 218 579.483 218 565H206ZM301 630V642C337.666 642 364.488 634.221 382.364 620.021C400.648 605.498 408 585.517 408 565H396H384C384 579.483 379.052 592.002 367.436 601.229C355.412 610.779 334.734 618 301 618V630ZM396 565H408V165H396H384V565H396ZM396 165V153H366V165V177H396V165ZM366 165H378V115H366H354V165H366ZM366 115V127H486V115V103H366V115ZM486 115H474V165H486H498V115H486ZM486 165V153H456V165V177H486V165ZM456 165H444V565H456H468V165H456ZM456 565H444C444 594.916 435.159 615.877 422.583 630.887C409.839 646.098 392.547 656.032 374.487 662.441C356.437 668.846 338.191 671.521 324.318 672.565C317.417 673.085 311.685 673.194 307.715 673.176C305.733 673.167 304.196 673.126 303.179 673.089C302.671 673.07 302.293 673.052 302.056 673.04C301.937 673.034 301.853 673.03 301.805 673.027C301.782 673.025 301.767 673.025 301.761 673.024C301.759 673.024 301.758 673.024 301.76 673.024C301.761 673.024 301.764 673.024 301.765 673.024C301.768 673.025 301.773 673.025 301 685C300.227 696.975 300.233 696.975 300.239 696.976C300.242 696.976 300.248 696.976 300.254 696.977C300.265 696.978 300.279 696.978 300.295 696.979C300.327 696.981 300.368 696.984 300.419 696.987C300.521 696.993 300.659 697 300.834 697.009C301.182 697.027 301.675 697.05 302.302 697.073C303.556 697.118 305.349 697.165 307.605 697.176C312.112 697.196 318.489 697.072 326.119 696.497C341.309 695.354 361.813 692.404 382.513 685.059C403.203 677.718 424.661 665.777 440.979 646.3C457.466 626.623 468 600.084 468 565H456ZM301 685C300.227 673.025 300.232 673.025 300.235 673.024C300.236 673.024 300.239 673.024 300.24 673.024C300.242 673.024 300.241 673.024 300.239 673.024C300.233 673.025 300.218 673.025 300.195 673.027C300.147 673.03 300.063 673.034 299.944 673.04C299.707 673.052 299.329 673.07 298.821 673.089C297.804 673.126 296.267 673.167 294.285 673.176C290.315 673.194 284.583 673.085 277.682 672.565C263.809 671.521 245.563 668.846 227.513 662.441C209.453 656.032 192.161 646.098 179.417 630.887C166.841 615.877 158 594.916 158 565H146H134C134 600.084 144.534 626.623 161.021 646.3C177.339 665.777 198.797 677.718 219.487 685.059C240.187 692.404 260.691 695.354 275.881 696.497C283.511 697.072 289.888 697.196 294.395 697.176C296.651 697.165 298.444 697.118 299.698 697.073C300.325 697.05 300.818 697.027 301.166 697.009C301.341 697 301.479 696.993 301.581 696.987C301.632 696.984 301.673 696.981 301.705 696.979C301.721 696.978 301.735 696.978 301.746 696.977C301.752 696.976 301.758 696.976 301.761 696.976C301.767 696.975 301.773 696.975 301 685ZM146 565H158V165H146H134V565H146ZM146 165V153H116V165V177H146V165ZM116 165H128V115H116H104V165H116ZM116 115V127H236V115V103H116V115Z" fill="#E4CE6C" mask="url(#path-1-outside-1_19_1866)"/>
<mask id="path-3-outside-2_19_1866" maskUnits="userSpaceOnUse" x="41" y="241" width="524" height="299" fill="black">
<rect fill="white" x="41" y="241" width="524" height="299"/>
<path d="M53 390.735C53.0003 234.736 413 220.735 548 305.735L514 355.735C378 275.735 123 320.735 123 390.735C123 460.735 378 505.735 514 425.735L548 475.735C413 560.735 53 546.735 53 390.735Z"/>
</mask>
<path d="M53 390.735C53.0003 234.736 413 220.735 548 305.735L514 355.735C378 275.735 123 320.735 123 390.735C123 460.735 378 505.735 514 425.735L548 475.735C413 560.735 53 546.735 53 390.735Z" fill="#002A5C"/>
<path d="M53 390.735L41 390.735V390.735H53ZM548 305.735L557.923 312.483L564.913 302.204L554.394 295.581L548 305.735ZM514 355.735L507.916 366.079L517.603 371.777L523.923 362.483L514 355.735ZM123 390.735L111 390.735V390.735H123ZM514 425.735L523.923 418.988L517.603 409.694L507.916 415.392L514 425.735ZM548 475.735L554.394 485.89L564.913 479.267L557.923 468.988L548 475.735ZM53 390.735L65 390.735C65.0001 357.236 84.0314 330.46 117.619 309.927C151.436 289.253 198.753 275.86 251.255 269.781C303.593 263.721 360.164 265.036 411.859 273.077C463.722 281.145 509.762 295.84 541.606 315.89L548 305.735L554.394 295.581C518.738 273.131 469.153 257.701 415.548 249.362C361.774 240.998 303.032 239.625 248.495 245.94C194.122 252.236 143.002 266.28 105.1 289.45C66.9688 312.761 41.0001 346.235 41 390.735L53 390.735ZM548 305.735L538.077 298.988L504.077 348.988L514 355.735L523.923 362.483L557.923 312.483L548 305.735ZM514 355.735L520.084 345.392C448.925 303.534 348.162 294.905 266.025 305.076C224.814 310.18 187.28 320.129 159.67 333.719C145.88 340.506 134.011 348.471 125.441 357.675C116.812 366.941 111 378.084 111 390.735L123 390.735L135 390.735C135 385.887 137.157 380.311 143.005 374.03C148.911 367.687 158.026 361.277 170.268 355.252C194.72 343.217 229.436 333.791 268.975 328.894C348.338 319.066 443.075 327.937 507.916 366.079L514 355.735ZM123 390.735H111C111 403.387 116.812 414.529 125.44 423.796C134.011 433 145.88 440.965 159.67 447.752C187.28 461.342 224.814 471.291 266.025 476.394C348.162 486.566 448.925 477.937 520.084 436.079L514 425.735L507.916 415.392C443.075 453.534 348.338 462.405 268.975 452.576C229.436 447.68 194.72 438.254 170.268 426.219C158.026 420.193 148.911 413.783 143.005 407.441C137.157 401.16 135 395.584 135 390.735H123ZM514 425.735L504.077 432.483L538.077 482.483L548 475.735L557.923 468.988L523.923 418.988L514 425.735ZM548 475.735L541.606 465.581C509.762 485.631 463.722 500.326 411.859 508.394C360.164 516.435 303.593 517.75 251.255 511.69C198.753 505.611 151.436 492.217 117.618 471.544C84.0313 451.011 65 424.235 65 390.735H53H41C41 435.236 66.9687 468.71 105.1 492.021C143.002 515.191 194.122 529.235 248.495 535.531C303.032 541.846 361.773 540.473 415.548 532.108C469.153 523.77 518.738 508.34 554.394 485.89L548 475.735Z" fill="#E4CE6C" mask="url(#path-3-outside-2_19_1866)"/>
<mask id="path-5-outside-3_19_1866" maskUnits="userSpaceOnUse" x="192" y="130" width="216" height="523" fill="black">
<rect fill="white" x="192" y="130" width="216" height="523"/>
<path d="M330 245V550L370 615L330 590H270L230 615L270 550V245L300 165L330 245Z"/>
</mask>
<path d="M330 245V550L370 615L330 590H270L230 615L270 550V245L300 165L330 245Z" fill="#002A5C"/>
<path d="M330 245H342V242.824L341.236 240.787L330 245ZM330 550H318V553.397L319.78 556.289L330 550ZM370 615L363.64 625.176L407.047 652.306L380.22 608.711L370 615ZM330 590L336.36 579.824L333.442 578H330V590ZM270 590V578H266.558L263.64 579.824L270 590ZM230 615L219.78 608.711L192.953 652.306L236.36 625.176L230 615ZM270 550L280.22 556.289L282 553.397V550H270ZM270 245L258.764 240.787L258 242.824V245H270ZM300 165L311.236 160.787L300 130.824L288.764 160.787L300 165ZM330 245H318V550H330H342V245H330ZM330 550L319.78 556.289L359.78 621.289L370 615L380.22 608.711L340.22 543.711L330 550ZM370 615L376.36 604.824L336.36 579.824L330 590L323.64 600.176L363.64 625.176L370 615ZM330 590V578H270V590V602H330V590ZM270 590L263.64 579.824L223.64 604.824L230 615L236.36 625.176L276.36 600.176L270 590ZM230 615L240.22 621.289L280.22 556.289L270 550L259.78 543.711L219.78 608.711L230 615ZM270 550H282V245H270H258V550H270ZM270 245L281.236 249.213L311.236 169.213L300 165L288.764 160.787L258.764 240.787L270 245ZM300 165L288.764 169.213L318.764 249.213L330 245L341.236 240.787L311.236 160.787L300 165Z" fill="#E4CE6C" mask="url(#path-5-outside-3_19_1866)"/>
</svg>
