<svg width="600" height="800" viewBox="0 0 600 800" fill="none" xmlns="http://www.w3.org/2000/svg">
<path d="M146 515.012C164.624 522.05 184.848 527.645 206 531.897V565C206 580.845 211.042 595.666 223.093 607.142L221.483 609.759L199.127 646.088L235.3 623.48L241.716 619.47C256.185 626.099 275.615 630 301 630C325.711 630 344.778 626.303 359.12 619.992L364.7 623.48L400.873 646.088L378.517 609.759L377.631 608.319C390.603 596.689 396 581.393 396 565V537.837C402.733 537.021 409.408 536.1 416.009 535.073C429.637 532.953 443.022 530.373 456 527.335V565C456 695 301 685 301 685C301 685 146 695 146 565V515.012ZM396 332.826C416.737 335.815 436.974 340.306 456 346.459V435.011C436.974 441.164 416.737 445.655 396 448.645V332.826ZM206 436.697C193.045 432.816 181.453 428.38 171.593 423.527C160.105 417.873 151.598 411.958 146 406.231V375.238C151.598 369.512 160.105 363.597 171.593 357.943C181.453 353.09 193.045 348.654 206 344.772V436.697ZM236 165H206V249.572C184.848 253.825 164.624 259.419 146 266.458V165H116V115H236V165ZM486 165H456V254.136C443.022 251.098 429.637 248.518 416.009 246.398C409.408 245.372 402.733 244.45 396 243.634V165H366V115H486V165Z" fill="black"/>
<path d="M548 475.735C500.008 505.953 423.58 523.657 345 526.92V468.041C405.243 466.212 466.791 453.505 514 425.735L548 475.735ZM255 318.703C180.268 330.004 123 357.562 123 390.735C123 423.908 180.268 451.466 255 462.767V524.18C145.893 512.582 53 469.979 53 390.735C53.0002 311.492 145.893 268.889 255 257.291V318.703ZM345 254.551C423.58 257.813 500.008 275.518 548 305.735L514 355.735C466.791 327.965 405.243 315.258 345 313.429V254.551Z" fill="black"/>
<path d="M330 245V550L370 615L330 590H270L230 615L270 550V245L300 165L330 245Z" fill="black"/>
</svg>
